<?xml version="1.0" encoding="utf-8"?><svg xmlns="http://www.w3.org/2000/svg" xmlns:xlink="http://www.w3.org/1999/xlink"><symbol viewBox="0 0 31 31" id="call" xmlns="http://www.w3.org/2000/svg"><path d="M30.186 23.915l-6.274-4.184a1.831 1.831 0 00-2.452.398l-1.828 2.35a.781.781 0 01-1.002.211l-.347-.192c-1.153-.628-2.587-1.41-5.476-4.3-2.89-2.89-3.673-4.326-4.301-5.476l-.19-.348a.782.782 0 01.206-1.005l2.348-1.827a1.832 1.832 0 00.399-2.453L7.085.815A1.822 1.822 0 004.629.262L2.005 1.838a3.701 3.701 0 00-1.688 2.19c-.944 3.443-.234 9.384 8.518 18.138 6.962 6.961 12.145 8.833 15.708 8.833a9.153 9.153 0 002.428-.317 3.697 3.697 0 002.19-1.688l1.578-2.622a1.822 1.822 0 00-.553-2.457zm-.337 1.927l-1.574 2.624a2.67 2.67 0 01-1.576 1.221c-3.178.873-8.73.15-17.133-8.252C1.164 13.032.441 7.48 1.314 4.302a2.674 2.674 0 011.223-1.578L5.16 1.15a.79.79 0 011.066.24L8.5 4.802l1.908 2.862a.795.795 0 01-.173 1.064l-2.349 1.827a1.808 1.808 0 00-.478 2.32l.186.34c.66 1.21 1.481 2.717 4.478 5.713s4.502 3.817 5.713 4.477l.34.187c.784.44 1.773.236 2.32-.478l1.827-2.35a.796.796 0 011.064-.172l6.274 4.184a.79.79 0 01.24 1.066zM17.565 5.17a8.792 8.792 0 018.782 8.781.517.517 0 101.034 0c-.006-5.418-4.397-9.809-9.816-9.815a.517.517 0 100 1.033z"/><path d="M17.565 8.269a5.69 5.69 0 015.683 5.682.517.517 0 001.033 0 6.723 6.723 0 00-6.716-6.715.517.517 0 100 1.033z"/><path d="M17.565 11.368a2.586 2.586 0 012.583 2.583.517.517 0 101.034 0 3.62 3.62 0 00-3.617-3.616.517.517 0 000 1.033z"/><defs><clipPath id="aclip0"><path d="M0 0h31v31H0z"/></clipPath></defs></symbol><symbol viewBox="0 0 33 33" id="telegram" xmlns="http://www.w3.org/2000/svg"><path d="M31.622 9.89a16.443 16.443 0 00-3.743-5.338.517.517 0 10-.713.748 15.331 15.331 0 014.8 11.2c0 8.528-6.938 15.467-15.466 15.467-8.528 0-15.467-6.939-15.467-15.467S7.972 1.033 16.5 1.033c3.115 0 6.119.922 8.684 2.667a.517.517 0 00.581-.855A16.415 16.415 0 0016.5 0 16.39 16.39 0 004.833 4.833 16.392 16.392 0 000 16.5a16.39 16.39 0 004.833 11.667A16.392 16.392 0 0016.5 33a16.39 16.39 0 0011.667-4.833A16.392 16.392 0 0033 16.5c0-2.298-.464-4.522-1.378-6.61z"/><path d="M23.998 6.997l-9.937 4.625a.517.517 0 00.436.937l6.13-2.853-2.98 2.412-6.84 5.537-3.74-1.637 5.242-2.44a.517.517 0 00-.436-.937L6.23 15.268a.835.835 0 00.018 1.52l4.177 1.827 1.223 7.34c.075.453.69.583.942.198l3.47-5.297 6.562 3.063a.842.842 0 001.185-.707l.925-15.717v-.044a.522.522 0 00-.734-.454zm-11.75 16.266l-.8-4.797 8.145-6.593-6.234 6.989a.522.522 0 00-.117.224l-.995 4.177zm1.097-.148l.755-3.173 1.014.473-1.77 2.7zm2.34-3.573l-1.093-.51 5.38-6.033-.778 1.188-3.508 5.355zm7.108 3.316l-6.16-2.875L23.585 9.37l-.793 13.49z"/></symbol><symbol viewBox="0 0 33 33" id="viber" xmlns="http://www.w3.org/2000/svg"><path d="M28.05 3.463a.516.516 0 10-.739.723 10.448 10.448 0 013.004 7.355v4.961c0 5.794-4.714 10.508-10.508 10.508h-6.063a.517.517 0 00-.366.151L9.3 31.24v-4.632a.517.517 0 00-.31-.473 10.512 10.512 0 01-6.305-9.633v-4.96c0-5.795 4.714-10.508 10.508-10.508h6.614c2.065 0 4.064.598 5.78 1.73a.517.517 0 10.569-.863A11.494 11.494 0 0019.807 0h-6.614C6.829 0 1.65 5.177 1.65 11.541v4.961c0 4.475 2.585 8.536 6.615 10.439v5.546c0 .45.563.685.882.366l4.81-4.81h5.85c6.363 0 11.54-5.177 11.54-11.54V11.54a11.47 11.47 0 00-3.299-8.078z"/><path d="M24.788 20.517l-.496-2.684a.517.517 0 00-.407-.413l-3.897-.78a.517.517 0 00-.467.142l-1.6 1.6c-2.697-1.204-4.188-2.698-5.5-5.51l1.595-1.596a.517.517 0 00.14-.467l-.779-3.897a.517.517 0 00-.413-.407l-2.684-.496a.514.514 0 00-.208.005 3.813 3.813 0 00-1.854 1.023c-.883.884-1.22 2.174-.976 3.733.112.709.278 1.444.493 2.184a.517.517 0 00.993-.29 16.63 16.63 0 01-.465-2.055c-.194-1.236.037-2.192.686-2.84a2.78 2.78 0 011.253-.723l2.23.412.657 3.283-1.653 1.653a.517.517 0 00-.107.576c1.503 3.367 3.267 5.13 6.507 6.502a.517.517 0 00.567-.11l1.653-1.654 3.284.657.412 2.23a2.783 2.783 0 01-.723 1.253c-.65.65-1.605.88-2.84.686-2.471-.389-5.898-1.588-8.106-3.788l-.032-.032c-1.015-1.02-1.921-2.426-2.618-4.068a.517.517 0 00-.951.404c.748 1.762 1.73 3.281 2.84 4.396l.031.032c2.384 2.374 6.044 3.663 8.675 4.077.33.052.648.077.952.077 1.134 0 2.084-.357 2.78-1.053.51-.51.864-1.151 1.024-1.854a.515.515 0 00.004-.208zM17.602 9.37a.517.517 0 100 1.034 2.242 2.242 0 012.24 2.24c0 .281.235.516.516.516a.522.522 0 00.517-.516 3.277 3.277 0 00-3.273-3.273z"/><path d="M17.602 7.166c-.202 0-.407.011-.608.033a.517.517 0 00.114 1.028 4.45 4.45 0 014.911 4.912.517.517 0 001.028.113 5.484 5.484 0 00-5.444-6.086z"/><path d="M17.602 4.96c-.196 0-.395.008-.59.023a.517.517 0 10.078 1.03 6.657 6.657 0 016.983 8.165.523.523 0 00.375.62.521.521 0 00.631-.382 7.72 7.72 0 00.206-1.773c0-4.236-3.447-7.682-7.683-7.682z"/><defs><clipPath id="cclip0"><path d="M0 0h33v33H0z"/></clipPath></defs></symbol><symbol viewBox="0 0 33 33" id="whatsapp" xmlns="http://www.w3.org/2000/svg"><path d="M28.167 4.833A16.392 16.392 0 0016.5 0 16.39 16.39 0 004.833 4.833 16.392 16.392 0 000 16.5c0 3.325.98 6.518 2.838 9.254L.042 32.28c-.183.427.275.87.697.67l6.242-2.973A16.366 16.366 0 0016.5 33a16.39 16.39 0 0011.667-4.833A16.391 16.391 0 0033 16.5a16.39 16.39 0 00-4.833-11.667zM16.5 31.967c-3.323 0-6.49-1.039-9.159-3.004a.52.52 0 00-.528-.05L1.53 31.428l2.37-5.53a.516.516 0 00-.053-.5A15.367 15.367 0 011.033 16.5c0-8.528 6.939-15.467 15.467-15.467S31.967 7.972 31.967 16.5 25.028 31.967 16.5 31.967z"/><path d="M25.591 6.192a.517.517 0 10-.684.775 12.722 12.722 0 014.304 9.533c0 7.009-5.702 12.71-12.71 12.71-7.01 0-12.712-5.701-12.712-12.71C3.79 9.491 9.491 3.79 16.5 3.79c2.235 0 4.432.587 6.355 1.7a.517.517 0 10.518-.895 13.742 13.742 0 00-6.873-1.84C8.921 2.756 2.756 8.922 2.756 16.5c0 7.579 6.165 13.744 13.744 13.744S30.244 24.08 30.244 16.5c0-3.941-1.696-7.698-4.653-10.308z"/><path d="M25.275 22.102l-.495-2.684a.517.517 0 00-.407-.413l-3.897-.78a.517.517 0 00-.467.142l-1.6 1.6c-2.697-1.204-4.187-2.697-5.5-5.51l1.595-1.595a.517.517 0 00.142-.467l-.78-3.897a.517.517 0 00-.413-.407l-2.684-.495a.516.516 0 00-.208.004 3.813 3.813 0 00-1.854 1.024c-.883.883-1.22 2.173-.975 3.731.223 1.42.674 2.965 1.268 4.349a.517.517 0 10.95-.408 17.67 17.67 0 01-1.197-4.101c-.195-1.236.036-2.191.685-2.84a2.78 2.78 0 011.253-.723l2.23.412.657 3.283-1.653 1.653a.516.516 0 00-.107.576c1.504 3.366 3.267 5.128 6.506 6.5a.517.517 0 00.567-.11l1.654-1.653 3.282.657.412 2.23a2.782 2.782 0 01-.722 1.253c-.65.65-1.605.88-2.84.686-2.47-.39-5.896-1.588-8.105-3.788l-.031-.031a11.263 11.263 0 01-1.66-2.171.517.517 0 10-.887.53 12.313 12.313 0 001.816 2.372l.032.032c2.384 2.375 6.044 3.663 8.674 4.076 1.049.165 2.175.088 3.1-.477.229-.14.441-.308.631-.498.51-.51.865-1.151 1.024-1.854a.519.519 0 00.004-.208z"/></symbol></svg>