<svg width="147" height="31" viewBox="0 0 147 31" fill="none" xmlns="http://www.w3.org/2000/svg">
<path d="M3.76 4.44V12.504H9.916V15.744H3.76V26.76H10.888V30H0.52V1.2H10.888V4.44H3.76Z" fill="#E7B96E"/>
<path d="M35.6895 1.2V4.8H28.5255V12.504H34.6815V15.744H28.5255V30H25.2855V1.2H35.6895ZM53.1545 30H49.9145V1.2H53.1545V30ZM88.767 1.2L89.847 30H86.607L85.563 4.44H85.203L81.135 29.64H77.895L73.863 4.44H73.503L72.423 30H69.183L70.299 1.2H76.743L79.515 22.08L82.359 1.2H88.767ZM114.447 6.168C114.447 5.592 114.267 5.124 113.907 4.764C113.547 4.404 113.079 4.224 112.503 4.224H110.343C109.767 4.224 109.299 4.404 108.939 4.764C108.579 5.124 108.399 5.592 108.399 6.168V25.176C108.399 25.752 108.579 26.22 108.939 26.58C109.299 26.94 109.767 27.12 110.343 27.12H112.503C113.079 27.12 113.547 26.94 113.907 26.58C114.267 26.22 114.447 25.752 114.447 25.176V6.168ZM117.687 25.176C117.687 25.896 117.555 26.568 117.291 27.192C117.027 27.816 116.655 28.368 116.175 28.848C115.719 29.304 115.167 29.676 114.519 29.964C113.895 30.228 113.223 30.36 112.503 30.36H110.343C109.623 30.36 108.951 30.228 108.327 29.964C107.703 29.676 107.151 29.304 106.671 28.848C106.215 28.368 105.843 27.816 105.555 27.192C105.291 26.568 105.159 25.896 105.159 25.176V6.168C105.159 5.448 105.291 4.776 105.555 4.152C105.843 3.504 106.215 2.952 106.671 2.496C107.151 2.016 107.703 1.644 108.327 1.38C108.951 1.116 109.623 0.983998 110.343 0.983998H112.503C113.223 0.983998 113.895 1.116 114.519 1.38C115.167 1.644 115.719 2.016 116.175 2.496C116.655 2.952 117.027 3.504 117.291 4.152C117.555 4.776 117.687 5.448 117.687 6.168V25.176ZM143.679 1.2H146.919L142.275 29.136C142.227 29.424 142.047 29.7 141.735 29.964C141.447 30.228 141.111 30.36 140.727 30.36H137.523C137.139 30.36 136.791 30.24 136.479 30C136.191 29.736 136.023 29.448 135.975 29.136L131.187 1.2H134.499L138.711 26.652C138.711 26.724 138.735 26.796 138.783 26.868C138.831 26.916 138.867 26.976 138.891 27.048C138.939 27.096 138.999 27.12 139.071 27.12H139.179C139.323 27.12 139.407 27.06 139.431 26.94C139.479 26.82 139.515 26.724 139.539 26.652L143.679 1.2Z" fill="white"/>
</svg>
