<svg width="99" height="21" viewBox="0 0 99 21" fill="none" xmlns="http://www.w3.org/2000/svg">
<path d="M2.84 2.96V8.336H6.944V10.496H2.84V17.84H7.592V20H0.68V0.8H7.592V2.96H2.84Z" fill="#550810"/>
<path d="M24.1263 0.8V3.2H19.3503V8.336H23.4543V10.496H19.3503V20H17.1903V0.8H24.1263ZM35.7697 20H33.6097V0.8H35.7697V20ZM59.5113 0.8L60.2313 20H58.0713L57.3753 2.96H57.1353L54.4233 19.76H52.2633L49.5753 2.96H49.3353L48.6153 20H46.4553L47.1993 0.8H51.4953L53.3433 14.72L55.2393 0.8H59.5113ZM76.6314 4.112C76.6314 3.728 76.5114 3.416 76.2714 3.176C76.0314 2.936 75.7194 2.816 75.3354 2.816H73.8954C73.5114 2.816 73.1994 2.936 72.9594 3.176C72.7194 3.416 72.5994 3.728 72.5994 4.112V16.784C72.5994 17.168 72.7194 17.48 72.9594 17.72C73.1994 17.96 73.5114 18.08 73.8954 18.08H75.3354C75.7194 18.08 76.0314 17.96 76.2714 17.72C76.5114 17.48 76.6314 17.168 76.6314 16.784V4.112ZM78.7914 16.784C78.7914 17.264 78.7034 17.712 78.5274 18.128C78.3514 18.544 78.1034 18.912 77.7834 19.232C77.4794 19.536 77.1114 19.784 76.6794 19.976C76.2634 20.152 75.8154 20.24 75.3354 20.24H73.8954C73.4154 20.24 72.9674 20.152 72.5514 19.976C72.1354 19.784 71.7674 19.536 71.4474 19.232C71.1434 18.912 70.8954 18.544 70.7034 18.128C70.5274 17.712 70.4394 17.264 70.4394 16.784V4.112C70.4394 3.632 70.5274 3.184 70.7034 2.768C70.8954 2.336 71.1434 1.968 71.4474 1.664C71.7674 1.344 72.1354 1.096 72.5514 0.92C72.9674 0.743999 73.4154 0.655999 73.8954 0.655999H75.3354C75.8154 0.655999 76.2634 0.743999 76.6794 0.92C77.1114 1.096 77.4794 1.344 77.7834 1.664C78.1034 1.968 78.3514 2.336 78.5274 2.768C78.7034 3.184 78.7914 3.632 78.7914 4.112V16.784ZM96.1196 0.8H98.2796L95.1836 19.424C95.1516 19.616 95.0316 19.8 94.8236 19.976C94.6316 20.152 94.4076 20.24 94.1516 20.24H92.0156C91.7596 20.24 91.5276 20.16 91.3196 20C91.1276 19.824 91.0156 19.632 90.9836 19.424L87.7916 0.8H89.9996L92.8076 17.768C92.8076 17.816 92.8236 17.864 92.8556 17.912C92.8876 17.944 92.9116 17.984 92.9276 18.032C92.9596 18.064 92.9996 18.08 93.0476 18.08H93.1196C93.2156 18.08 93.2716 18.04 93.2876 17.96C93.3196 17.88 93.3436 17.816 93.3596 17.768L96.1196 0.8Z" fill="#101519"/>
</svg>
