<svg width="33" height="33" viewBox="0 0 33 33" fill="none" xmlns="http://www.w3.org/2000/svg">
<path d="M16.5041 0H16.4959C7.39819 0 0 7.40025 0 16.5C0 20.1094 1 24.5 5 28.5C7.2839 30.7839 11.5 33 16.5041 33C25.6018 33 33 25.5977 33 16.5C33 7.40231 25.6018 0 16.5041 0Z" fill="#61A8DE"/>
<path d="M25.5801 7.07935L3.51255 15.6788C2.79778 15.9574 2.84108 16.9831 3.57685 17.2003L9.18444 18.8562L11.2772 25.4968C11.4958 26.1904 12.3748 26.4007 12.8836 25.8811L15.7829 22.9208L21.4715 27.0964C22.1677 27.6074 23.1591 27.2278 23.3359 26.3825L27.1035 8.3695C27.288 7.48717 26.42 6.75205 25.5801 7.07935ZM22.8134 11.0769L12.5631 20.1412C12.461 20.2315 12.3959 20.3566 12.3807 20.4921L11.9861 24.0003C11.9732 24.1147 11.8131 24.1299 11.7789 24.0199L10.1553 18.788C10.0809 18.5485 10.1778 18.289 10.391 18.1568L22.4954 10.6495C22.7738 10.4767 23.0588 10.8599 22.8134 11.0769Z" fill="white"/>
</svg>
