<svg width="33" height="33" viewBox="0 0 33 33" fill="none" xmlns="http://www.w3.org/2000/svg">
<mask id="mask0" mask-type="alpha" maskUnits="userSpaceOnUse" x="0" y="0" width="33" height="33">
<rect width="33" height="33" rx="16.5" fill="#C4C4C4"/>
</mask>
<g mask="url(#mask0)">
<path d="M33 0H0V33H33V0Z" fill="#61A8DE"/>
<path d="M25.9853 7.28443L3.91782 15.8839C3.20305 16.1625 3.24635 17.1882 3.98212 17.4054L9.58971 19.0613L11.6825 25.7018C11.9011 26.3955 12.7801 26.6058 13.2889 26.0862L16.1882 23.1259L21.8768 27.3015C22.573 27.8125 23.5644 27.4328 23.7412 26.5876L27.5088 8.57458C27.6933 7.69225 26.8252 6.95713 25.9853 7.28443ZM23.2186 11.282L12.9684 20.3462C12.8662 20.4366 12.8012 20.5617 12.786 20.6972L12.3914 24.2054C12.3785 24.3198 12.2184 24.3349 12.1842 24.225L10.5605 18.9931C10.4862 18.7536 10.5831 18.494 10.7962 18.3619L22.9007 10.8546C23.179 10.6818 23.464 11.065 23.2186 11.282Z" fill="white"/>
</g>
</svg>
