<svg width="33" height="33" viewBox="0 0 33 33" fill="none" xmlns="http://www.w3.org/2000/svg">
<path d="M16.5041 0H16.4959C7.39819 0 0 7.40025 0 16.5C0 20.1094 1 24.5 5 28.5C7.2839 30.7839 11.5 33 16.5041 33C25.6018 33 33 25.5977 33 16.5C33 7.40231 25.6018 0 16.5041 0Z" fill="#79509A"/>
<path d="M27.362 10.4297L27.3555 10.4037C26.8283 8.27262 24.4518 5.98588 22.2693 5.51014L22.2447 5.50507C18.7147 4.83164 15.1354 4.83164 11.6061 5.50507L11.5807 5.51014C9.39898 5.98588 7.02245 8.27262 6.49457 10.4037L6.48878 10.4297C5.83707 13.4058 5.83707 16.4239 6.48878 19.4L6.49457 19.4261C6.99993 21.4662 9.19949 23.6479 11.3005 24.2479V26.6267C11.3005 27.4877 12.3497 27.9106 12.9464 27.2893L15.3566 24.784C15.8793 24.8132 16.4024 24.8295 16.9254 24.8295C18.7024 24.8295 20.4801 24.6615 22.2447 24.3248L22.2693 24.3197C24.4518 23.844 26.8283 21.5572 27.3555 19.4262L27.362 19.4001C28.0137 16.4239 28.0137 13.4058 27.362 10.4297ZM25.4547 18.9685C25.1028 20.3588 23.2983 22.0872 21.8646 22.4066C19.9876 22.7635 18.0958 22.916 16.2058 22.8637C16.1683 22.8627 16.1321 22.8772 16.1059 22.9042C15.8377 23.1795 14.3461 24.7107 14.3461 24.7107L12.4743 26.6317C12.3374 26.7744 12.097 26.6774 12.097 26.4804V22.5396C12.097 22.4745 12.0505 22.4192 11.9866 22.4067C11.9862 22.4066 11.9859 22.4066 11.9855 22.4065C10.5518 22.0871 8.748 20.3587 8.39536 18.9684C7.80883 16.2783 7.80883 13.5513 8.39536 10.8612C8.748 9.47095 10.5518 7.7425 11.9855 7.42317C15.2636 6.79971 18.5872 6.79971 21.8646 7.42317C23.299 7.7425 25.1028 9.47095 25.4547 10.8612C26.0419 13.5514 26.0419 16.2784 25.4547 18.9685Z" fill="white"/>
<path d="M20.0443 20.7875C19.8239 20.7206 19.6139 20.6756 19.4188 20.5946C17.3973 19.756 15.537 18.674 14.0633 17.0154C13.2253 16.0723 12.5694 15.0075 12.0149 13.8806C11.752 13.3462 11.5304 12.7909 11.3046 12.2392C11.0987 11.7361 11.402 11.2163 11.7214 10.8373C12.0211 10.4815 12.4068 10.2092 12.8244 10.0086C13.1504 9.85196 13.472 9.94226 13.7101 10.2186C14.2248 10.816 14.6976 11.4439 15.0804 12.1364C15.3158 12.5623 15.2512 13.0829 14.8246 13.3728C14.7209 13.4433 14.6264 13.526 14.5298 13.6055C14.4451 13.6753 14.3653 13.7457 14.3073 13.8401C14.2011 14.0129 14.196 14.2167 14.2644 14.4045C14.7905 15.8504 15.6774 16.9747 17.1327 17.5803C17.3656 17.6772 17.5994 17.79 17.8677 17.7587C18.317 17.7062 18.4625 17.2134 18.7774 16.9559C19.0851 16.7043 19.4784 16.701 19.8099 16.9107C20.1414 17.1206 20.4629 17.3459 20.7824 17.5735C21.096 17.797 21.4082 18.0156 21.6975 18.2703C21.9756 18.5153 22.0714 18.8366 21.9148 19.1691C21.628 19.7779 21.2108 20.2844 20.6089 20.6078C20.439 20.6989 20.236 20.7285 20.0443 20.7875C19.8239 20.7205 20.236 20.7285 20.0443 20.7875Z" fill="white"/>
<path d="M16.9313 9.3125C19.5754 9.38658 21.747 11.1413 22.2124 13.7554C22.2917 14.2008 22.32 14.6562 22.3552 15.1082C22.3701 15.2984 22.2624 15.479 22.0572 15.4815C21.8452 15.484 21.7499 15.3067 21.7361 15.1166C21.7089 14.7404 21.69 14.3625 21.6381 13.9893C21.3644 12.0197 19.7938 10.3901 17.8333 10.0405C17.5383 9.98781 17.2364 9.97398 16.9375 9.94262C16.7486 9.92278 16.5012 9.91134 16.4593 9.67651C16.4242 9.47963 16.5904 9.32286 16.7778 9.31279C16.8288 9.30997 16.8801 9.31228 16.9313 9.3125C19.5754 9.38658 16.8801 9.31228 16.9313 9.3125Z" fill="white"/>
<path d="M20.9492 14.5214C20.9449 14.5544 20.9425 14.6321 20.9232 14.7052C20.853 14.9706 20.4506 15.0039 20.3579 14.736C20.3305 14.6565 20.3263 14.566 20.3262 14.4804C20.3252 13.9204 20.2035 13.3609 19.9211 12.8737C19.6308 12.3729 19.1873 11.9519 18.6671 11.6972C18.3526 11.5431 18.0124 11.4474 17.6676 11.3904C17.5169 11.3654 17.3647 11.3503 17.2132 11.3292C17.0298 11.3037 16.9318 11.1868 16.9405 11.006C16.9486 10.8365 17.0724 10.7147 17.2571 10.7251C17.8639 10.7596 18.4499 10.8907 18.9894 11.1764C20.0864 11.7573 20.7131 12.6743 20.896 13.8988C20.9042 13.9543 20.9176 14.0092 20.9218 14.0649C20.9321 14.2024 20.9386 14.3401 20.9492 14.5214C20.9449 14.5544 20.9386 14.3401 20.9492 14.5214Z" fill="white"/>
<path d="M19.3048 14.4574C19.0836 14.4613 18.9652 14.3389 18.9424 14.1361C18.9265 13.9947 18.914 13.8514 18.8803 13.7138C18.8138 13.4428 18.6698 13.1917 18.4418 13.0256C18.3342 12.9472 18.2123 12.8901 18.0845 12.8532C17.9223 12.8064 17.7538 12.8193 17.5919 12.7796C17.416 12.7365 17.3188 12.5942 17.3465 12.4292C17.3716 12.2791 17.5176 12.1619 17.6816 12.1738C18.7068 12.2478 19.4394 12.7778 19.544 13.9846C19.5514 14.0697 19.5601 14.1598 19.5412 14.2412C19.5088 14.3807 19.4055 14.4506 19.3048 14.4574C19.0836 14.4613 19.4055 14.4506 19.3048 14.4574Z" fill="white"/>
</svg>
