<svg width="33" height="33" viewBox="0 0 33 33" fill="none" xmlns="http://www.w3.org/2000/svg">
<mask id="mask0" mask-type="alpha" maskUnits="userSpaceOnUse" x="0" y="0" width="33" height="33">
<rect width="33" height="33" rx="16.5" fill="#C4C4C4"/>
</mask>
<g mask="url(#mask0)">
<path d="M33 0H0V33H33V0Z" fill="#7D3DAF"/>
<path d="M26.9367 10.6373L26.9302 10.6112C26.403 8.48014 24.0265 6.1934 21.844 5.71766L21.8194 5.71259C18.2894 5.03916 14.7101 5.03916 11.1808 5.71259L11.1554 5.71766C8.97369 6.1934 6.59715 8.48014 6.06928 10.6112L6.06348 10.6373C5.41178 13.6134 5.41178 16.6315 6.06348 19.6076L6.06928 19.6336C6.57463 21.6737 8.77419 23.8554 10.8752 24.4554V26.8343C10.8752 27.6952 11.9244 28.1181 12.5211 27.4968L14.9313 24.9915C15.454 25.0207 15.9771 25.037 16.5001 25.037C18.2771 25.037 20.0548 24.869 21.8194 24.5323L21.844 24.5272C24.0265 24.0515 26.403 21.7648 26.9302 19.6337L26.9367 19.6076C27.5884 16.6315 27.5884 13.6134 26.9367 10.6373ZM25.0294 19.176C24.6775 20.5663 22.873 22.2947 21.4393 22.6141C19.5623 22.971 17.6705 23.1236 15.7806 23.0712C15.743 23.0702 15.7068 23.0847 15.6806 23.1117C15.4124 23.387 13.9208 24.9182 13.9208 24.9182L12.049 26.8393C11.9121 26.9819 11.6717 26.8849 11.6717 26.6879V22.7472C11.6717 22.6821 11.6252 22.6267 11.5613 22.6142C11.5609 22.6141 11.5606 22.6141 11.5602 22.614C10.1265 22.2947 8.32271 20.5662 7.97007 19.1759C7.38354 16.4858 7.38354 13.7588 7.97007 11.0688C8.32271 9.67847 10.1265 7.95002 11.5602 7.63069C14.8383 7.00723 18.1619 7.00723 21.4393 7.63069C22.8737 7.95002 24.6775 9.67847 25.0294 11.0688C25.6166 13.7589 25.6166 16.4859 25.0294 19.176Z" fill="white"/>
<path d="M19.619 20.995C19.3986 20.9281 19.1886 20.8831 18.9935 20.8022C16.9721 19.9635 15.1117 18.8815 13.638 17.223C12.8 16.2798 12.1441 15.215 11.5897 14.0881C11.3267 13.5537 11.1051 12.9984 10.8793 12.4467C10.6734 11.9436 10.9767 11.4238 11.2961 11.0448C11.5958 10.689 11.9815 10.4168 12.3991 10.2161C12.7251 10.0595 13.0467 10.1498 13.2848 10.4261C13.7995 11.0235 14.2723 11.6514 14.6551 12.3439C14.8905 12.7698 14.8259 13.2905 14.3993 13.5803C14.2956 13.6508 14.2011 13.7335 14.1045 13.8131C14.0198 13.8828 13.94 13.9532 13.882 14.0477C13.7758 14.2204 13.7708 14.4242 13.8391 14.612C14.3652 16.0579 15.2521 17.1823 16.7074 17.7878C16.9403 17.8847 17.1742 17.9975 17.4424 17.9663C17.8917 17.9138 18.0372 17.4209 18.3521 17.1634C18.6598 16.9118 19.0531 16.9085 19.3846 17.1183C19.7161 17.3281 20.0376 17.5534 20.3571 17.781C20.6707 18.0045 20.9829 18.2231 21.2722 18.4778C21.5503 18.7228 21.6461 19.0442 21.4895 19.3766C21.2028 19.9854 20.7855 20.492 20.1836 20.8153C20.0137 20.9064 19.8107 20.936 19.619 20.995C19.8107 20.936 19.3986 20.928 19.619 20.995Z" fill="white"/>
<path d="M16.506 9.52002C19.1501 9.5941 21.3218 11.3488 21.7871 13.9629C21.8664 14.4083 21.8947 14.8637 21.9299 15.3157C21.9448 15.5059 21.8371 15.6866 21.6319 15.689C21.4199 15.6916 21.3246 15.5142 21.3108 15.3241C21.2836 14.9479 21.2647 14.57 21.2129 14.1968C20.9391 12.2272 19.3685 10.5976 17.408 10.248C17.113 10.1953 16.8111 10.1815 16.5122 10.1501C16.3233 10.1303 16.0759 10.1189 16.034 9.88403C15.9989 9.68715 16.1651 9.53038 16.3526 9.52031C16.4035 9.51749 16.4548 9.5198 16.506 9.52002C16.4548 9.5198 19.1501 9.5941 16.506 9.52002Z" fill="white"/>
<path d="M20.5239 14.7289C20.5196 14.7619 20.5173 14.8396 20.4979 14.9127C20.4278 15.1782 20.0253 15.2114 19.9326 14.9435C19.9052 14.864 19.901 14.7735 19.9009 14.6879C19.9 14.1279 19.7782 13.5685 19.4958 13.0812C19.2055 12.5804 18.762 12.1594 18.2418 11.9047C17.9273 11.7507 17.5871 11.6549 17.2423 11.5979C17.0916 11.573 16.9394 11.5578 16.788 11.5368C16.6045 11.5113 16.5065 11.3943 16.5152 11.2135C16.5233 11.0441 16.6471 10.9222 16.8318 10.9326C17.4386 10.9671 18.0247 11.0982 18.5641 11.3839C19.6611 11.9648 20.2878 12.8819 20.4707 14.1063C20.479 14.1618 20.4923 14.2168 20.4965 14.2724C20.5068 14.41 20.5133 14.5476 20.5239 14.7289C20.5133 14.5476 20.5196 14.7619 20.5239 14.7289Z" fill="white"/>
<path d="M18.8795 14.6649C18.6583 14.6689 18.5399 14.5464 18.5171 14.3436C18.5012 14.2022 18.4887 14.0589 18.455 13.9213C18.3885 13.6503 18.2445 13.3992 18.0165 13.2332C17.9089 13.1547 17.787 13.0976 17.6592 13.0608C17.497 13.0139 17.3285 13.0268 17.1666 12.9871C16.9907 12.944 16.8935 12.8017 16.9212 12.6367C16.9463 12.4866 17.0923 12.3694 17.2564 12.3813C18.2815 12.4553 19.0141 12.9853 19.1187 14.1921C19.1261 14.2773 19.1348 14.3673 19.1159 14.4487C19.0835 14.5882 18.9802 14.6581 18.8795 14.6649C18.9802 14.6581 18.6583 14.6689 18.8795 14.6649Z" fill="white"/>
</g>
</svg>
