<svg width="19" height="15" viewBox="0 0 19 15" fill="none" xmlns="http://www.w3.org/2000/svg">
<path d="M0.258742 8.12469L5.91283 13.7788C6.2578 14.1237 6.81727 14.1237 7.16224 13.7788C7.50729 13.4337 7.50729 12.8744 7.16224 12.5294L3.01631 8.38343L18.1165 8.38344C18.6044 8.38344 19 7.98786 19 7.49999C19 7.01218 18.6044 6.61653 18.1165 6.61653L3.01631 6.61653L7.1621 2.4706C7.50715 2.12556 7.50715 1.56623 7.1621 1.22119C6.98965 1.04881 6.76349 0.962444 6.5374 0.962444C6.3113 0.962444 6.08521 1.04881 5.91269 1.22119L0.258742 6.87528C-0.0862993 7.22032 -0.0862993 7.77965 0.258742 8.12469Z" fill="black"/>
</svg>
