<svg width="19" height="15" viewBox="0 0 19 15" fill="none" xmlns="http://www.w3.org/2000/svg">
<path d="M1.82363 4.63731C2.06397 4.80692 2.78847 5.31063 3.99715 6.14821C5.20587 6.98579 6.13183 7.6307 6.77507 8.08299C6.84574 8.13256 6.99589 8.24033 7.22557 8.40644C7.4553 8.57267 7.64618 8.70699 7.79807 8.80945C7.95007 8.91187 8.13382 9.02677 8.34951 9.15396C8.56513 9.28105 8.76837 9.37664 8.95922 9.43992C9.1501 9.50372 9.3268 9.53532 9.48934 9.53532H9.5H9.5107C9.67324 9.53532 9.85001 9.50368 10.0409 9.43992C10.2317 9.37664 10.4351 9.28093 10.6505 9.15396C10.8661 9.02662 11.0498 8.91184 11.2018 8.80945C11.3538 8.70699 11.5445 8.57267 11.7744 8.40644C12.004 8.24018 12.1543 8.13256 12.225 8.08299C12.8752 7.6307 14.5294 6.48203 17.187 4.63709C17.703 4.27675 18.1341 3.84196 18.4803 3.333C18.8269 2.82427 19 2.29058 19 1.73224C19 1.26565 18.832 0.86625 18.4962 0.534064C18.1605 0.201804 17.7628 0.0357666 17.3035 0.0357666H1.69636C1.15212 0.0357666 0.733297 0.219518 0.439956 0.587021C0.146652 0.954598 0 1.41405 0 1.96534C0 2.41065 0.194447 2.8932 0.583154 3.4127C0.971825 3.93224 1.38545 4.34048 1.82363 4.63731Z" fill="#550810"/>
<path d="M17.9396 5.77164C15.6214 7.34069 13.8611 8.56011 12.6596 9.42962C12.2567 9.72638 11.9299 9.95804 11.6789 10.124C11.4279 10.2901 11.0941 10.4598 10.677 10.6329C10.26 10.8062 9.8714 10.8927 9.51084 10.8927H9.50003H9.48937C9.12889 10.8927 8.74007 10.8062 8.3231 10.6329C7.90613 10.4598 7.57209 10.2901 7.32116 10.124C7.0703 9.95804 6.74335 9.72638 6.3405 9.42962C5.3862 8.7299 3.62972 7.51041 1.07098 5.77164C0.667974 5.50322 0.311018 5.19554 0 4.84924V13.2675C0 13.7343 0.166037 14.1335 0.498297 14.4657C0.830483 14.7981 1.22992 14.9642 1.69647 14.9642H17.3037C17.7701 14.9642 18.1695 14.7981 18.5017 14.4657C18.8341 14.1334 19 13.7344 19 13.2675V4.84924C18.696 5.18837 18.3427 5.49605 17.9396 5.77164Z" fill="#550810"/>
</svg>
