<svg width="20" height="20" viewBox="0 0 20 20" fill="none" xmlns="http://www.w3.org/2000/svg">
<g clip-path="url(#clip0)">
<path d="M19.5516 15.806L16.4629 12.7169C15.8477 12.1042 14.8289 12.1228 14.1923 12.7597L12.6362 14.3154C12.5379 14.2612 12.4361 14.2046 12.3291 14.1446C11.3465 13.6001 10.0015 12.8539 8.58628 11.4376C7.16683 10.0183 6.41986 8.67127 5.87372 7.68799C5.81609 7.58381 5.76087 7.48338 5.70634 7.388L6.75071 6.34518L7.26416 5.8311C7.90178 5.19331 7.91936 4.1748 7.30559 3.56028L4.2169 0.470905C3.60313 -0.142752 2.58387 -0.124135 1.94626 0.513654L1.07576 1.38915L1.09955 1.41277C0.807657 1.78521 0.563746 2.21477 0.382234 2.678C0.214915 3.11894 0.110743 3.53971 0.0631095 3.96134C-0.344731 7.34243 1.20033 10.4325 5.39342 14.6256C11.1896 20.4214 15.8605 19.9835 16.062 19.9622C16.5009 19.9097 16.9214 19.8048 17.3489 19.6388C17.8081 19.4595 18.2374 19.2159 18.6096 18.9246L18.6286 18.9415L19.5105 18.078C20.1468 17.4403 20.1651 16.4215 19.5516 15.806Z" fill="#550810"/>
</g>
<defs>
<clipPath id="clip0">
<rect width="20" height="20" fill="white"/>
</clipPath>
</defs>
</svg>
