<svg width="16" height="16" viewBox="0 0 16 16" fill="none" xmlns="http://www.w3.org/2000/svg">
<path fill-rule="evenodd" clip-rule="evenodd" d="M0 16V0H16V16H0ZM13.5319 12.4596L11.6521 3.41746C11.6078 3.20397 11.3575 3.10723 11.1808 3.23559L8.61468 5.09865C8.4589 5.21178 8.24647 5.20577 8.09734 5.08417L6.67457 3.9244C6.50947 3.78936 6.26064 3.86462 6.19742 4.06797L5.2095 7.24515L2.65713 8.19773C2.39786 8.29486 2.39564 8.66089 2.65417 8.76047L13.1291 12.8014C13.3512 12.8873 13.5803 12.6928 13.5319 12.4596Z" fill="#550810"/>
<path fill-rule="evenodd" clip-rule="evenodd" d="M11.0259 10.8245L6.03759 7.75222C5.8464 7.63424 5.75641 7.40335 5.81809 7.18719L6.35741 5.29212C6.39578 5.15786 6.59059 5.17158 6.60926 5.3103L6.74943 6.34953C6.77591 6.54519 6.8692 6.72555 7.01394 6.86019L11.1307 10.6869C11.2077 10.7583 11.1155 10.8795 11.0259 10.8245Z" fill="#550810"/>
</svg>
