<svg width="16" height="16" viewBox="0 0 16 16" fill="none" xmlns="http://www.w3.org/2000/svg">
<path d="M11.9873 0H4C1.80317 0 0 1.80317 0 4.0127V12C0 14.1968 1.80317 16 4 16H11.9873C14.1968 16 16 14.1968 16 11.9873V4.0127C16 1.80317 14.1968 0 11.9873 0ZM7.56825 3.28889C7.59365 2.89524 7.96191 3.03492 8.15238 3.00952C10.5397 3.08571 12.5968 5.23175 12.5714 7.54286C12.5714 7.77143 12.6476 8.10159 12.3048 8.10159C11.9746 8.10159 12.0635 7.75873 12.0254 7.53016C11.7079 5.07937 10.5651 3.92381 8.07619 3.54286C7.87302 3.51746 7.55556 3.55556 7.56825 3.28889ZM11.1365 7.64444C10.7556 7.69524 10.8317 7.36508 10.7937 7.14921C10.5397 5.65079 10.0063 5.10476 8.46984 4.7746C8.24127 4.72381 7.88571 4.7619 7.94921 4.41905C8 4.08889 8.31746 4.20317 8.55873 4.22857C10.0952 4.40635 11.3524 5.71429 11.3397 7.14921C11.3143 7.30159 11.4159 7.59365 11.1365 7.64444ZM10.1841 6.85714C10.1841 7.06032 10.1587 7.25079 9.93016 7.27619C9.76508 7.30159 9.66349 7.1619 9.6381 6.99683C9.5746 6.3873 9.24445 6.01905 8.60952 5.91746C8.41905 5.89206 8.24127 5.82857 8.33016 5.5746C8.39365 5.40952 8.54603 5.38413 8.71111 5.38413C9.39683 5.37143 10.1841 6.17143 10.1841 6.85714ZM12.5968 11.5429C12.3302 12.2667 11.4286 13.0032 10.654 12.9905C10.5397 12.9651 10.3238 12.927 10.1333 12.8508C6.73016 11.4159 4.25397 9.05397 2.85714 5.67619C2.3873 4.54603 2.88254 3.58095 4.06349 3.2C4.27937 3.12381 4.48254 3.12381 4.69841 3.2C5.20635 3.37778 6.48889 5.11746 6.51429 5.6254C6.53968 6.01905 6.26032 6.23492 5.99365 6.4127C5.47302 6.75556 5.47302 7.1873 5.70159 7.68254C6.19683 8.7746 7.04762 9.53651 8.15238 10.019C8.54603 10.1968 8.93968 10.1841 9.20635 9.77778C9.68889 9.05397 10.2857 9.09206 10.9333 9.53651C11.2635 9.76508 11.5937 9.98095 11.8984 10.2222C12.3175 10.5651 12.8508 10.8444 12.5968 11.5429Z" fill="#550810"/>
</svg>
