<svg width="31" height="31" viewBox="0 0 31 31" fill="none" xmlns="http://www.w3.org/2000/svg">
<g clip-path="url(#clip0)">
<path d="M30.1865 23.9153L23.912 19.731C23.1158 19.2042 22.0484 19.3775 21.4598 20.1292L19.6321 22.4792C19.3972 22.7889 18.9702 22.8787 18.6304 22.69L18.2827 22.4983C17.1302 21.8701 15.6962 21.088 12.8069 18.1977C9.9176 15.3074 9.13394 13.8723 8.50574 12.7219L8.3151 12.3742C8.12374 12.0345 8.21189 11.6057 8.52172 11.3689L10.8701 9.54176C11.6215 8.95303 11.7951 7.88599 11.2689 7.08949L7.08455 0.814978C6.54534 0.00389094 5.46353 -0.239593 4.62877 0.262206L2.005 1.83831C1.18059 2.32298 0.575757 3.10791 0.31732 4.02863C-0.627495 7.47118 0.0832803 13.4125 8.83537 22.1656C15.7975 29.1272 20.9804 30.9993 24.5428 30.9993C25.3627 31.0028 26.1793 30.8961 26.9708 30.6821C27.8917 30.424 28.6768 29.8191 29.1611 28.9945L30.7388 26.3723C31.2413 25.5373 30.998 24.4548 30.1865 23.9153ZM29.8487 25.8422L28.2746 28.466C27.9268 29.0612 27.3622 29.4988 26.699 29.6872C23.521 30.5597 17.9687 29.837 9.5663 21.4347C1.16394 13.0323 0.441302 7.4805 1.31383 4.30196C1.50247 3.63798 1.94064 3.07262 2.53658 2.72428L5.16035 1.15024C5.52255 0.9323 5.99208 1.03794 6.22606 1.38991L8.49908 4.80249L10.4069 7.66387C10.6353 8.00936 10.5603 8.47242 10.2343 8.72807L7.8854 10.5552C7.17057 11.1018 6.96644 12.0908 7.40655 12.8758L7.59307 13.2147C8.25329 14.4255 9.07413 15.9319 12.0709 18.9282C15.0676 21.9244 16.5735 22.7453 17.7838 23.4054L18.1232 23.5924C18.9081 24.0325 19.8972 23.8284 20.4437 23.1136L22.2709 20.7646C22.5266 20.4389 22.9895 20.3639 23.3351 20.5921L29.6091 24.7765C29.9613 25.0103 30.0669 25.4801 29.8487 25.8422Z" fill="#550810"/>
<path d="M17.5654 5.16937C22.4133 5.17476 26.342 9.10349 26.3475 13.9514C26.3475 14.2367 26.5787 14.468 26.864 14.468C27.1493 14.468 27.3806 14.2367 27.3806 13.9514C27.3746 8.5331 22.9837 4.14216 17.5654 4.13623C17.2801 4.13623 17.0488 4.36749 17.0488 4.6528C17.0488 4.93812 17.2801 5.16937 17.5654 5.16937Z" fill="#550810"/>
<path d="M17.5654 8.26886C20.7022 8.27255 23.2442 10.8145 23.2479 13.9514C23.2479 14.2367 23.4792 14.4679 23.7645 14.4679C24.0498 14.4679 24.281 14.2367 24.281 13.9514C24.2767 10.2441 21.2726 7.23996 17.5654 7.23572C17.2801 7.23572 17.0488 7.46697 17.0488 7.75229C17.0488 8.0376 17.2801 8.26886 17.5654 8.26886Z" fill="#550810"/>
<path d="M17.5654 11.3685C18.9912 11.3702 20.1466 12.5256 20.1484 13.9514C20.1484 14.2368 20.3797 14.468 20.6649 14.468C20.9502 14.468 21.1815 14.2368 21.1815 13.9514C21.1792 11.9553 19.5616 10.3376 17.5654 10.3353C17.2801 10.3353 17.0488 10.5666 17.0488 10.8519C17.0488 11.1372 17.2801 11.3685 17.5654 11.3685Z" fill="#550810"/>
</g>
<defs>
<clipPath id="clip0">
<rect width="31" height="31" fill="white"/>
</clipPath>
</defs>
</svg>
