<svg width="22" height="22" viewBox="0 0 22 22" fill="none" xmlns="http://www.w3.org/2000/svg">
<path d="M18.7731 3.22482C16.6957 1.14747 13.935 0.00244141 10.9977 0.00244141C8.06048 0.00244141 5.29973 1.14747 3.22238 3.22482C1.14503 5.30217 0 8.06292 0 11.0002C0 13.9374 1.14503 16.6982 3.22238 18.7755C5.29973 20.8529 8.06048 21.9979 10.9977 21.9979C12.704 21.9979 14.2609 21.6811 15.4964 21.0882C16.6686 20.5225 17.5194 19.7124 17.8951 18.8117C18.3431 17.7301 18.0897 16.6031 17.2026 15.7161L17.171 15.6844C17.1845 15.6663 17.2026 15.6527 17.2162 15.6391C17.8498 14.9738 17.8498 14.1004 17.2072 13.4577L15.6412 11.8918C15.3335 11.575 14.9624 11.403 14.5686 11.403C14.1749 11.403 13.7992 11.5704 13.4824 11.8872L12.6678 12.7019C12.627 12.6793 12.5908 12.6612 12.5501 12.6431C12.4505 12.5933 12.36 12.548 12.2831 12.4982C11.4548 11.9732 10.7036 11.2853 9.98395 10.4028C9.66715 10.0045 9.44991 9.66506 9.28698 9.33015C9.49064 9.14007 9.68072 8.94546 9.86628 8.75537C9.94322 8.67391 10.0247 8.59697 10.1062 8.5155C10.7714 7.85021 10.7714 6.9903 10.1062 6.32501L9.33224 5.55109C9.24172 5.46058 9.15573 5.37459 9.06974 5.28407C8.89776 5.10756 8.72125 4.92653 8.53117 4.75002C8.22341 4.44679 7.85682 4.28839 7.4676 4.28839C7.07838 4.28839 6.70726 4.44679 6.39045 4.75002C6.38593 4.75455 6.38593 4.75455 6.3814 4.75908L5.40835 5.73213C5.01913 6.12135 4.79284 6.60108 4.74758 7.15323C4.6797 8.01314 4.92862 8.80968 5.12323 9.33015C5.58938 10.5883 6.28636 11.756 7.32277 13.0051C8.58095 14.5077 10.0971 15.698 11.8305 16.5353C12.4958 16.8521 13.3874 17.2232 14.3921 17.2911C14.4555 17.2956 14.5188 17.2956 14.5822 17.2956C15.2837 17.2956 15.8766 17.0421 16.3382 16.5398C16.3427 16.5353 16.3518 16.5262 16.3563 16.5217C16.3699 16.5036 16.388 16.4855 16.4061 16.4674L16.4332 16.4945C17.0125 17.0738 17.171 17.7346 16.8904 18.4089C16.3699 19.6445 14.3468 20.9117 10.9977 20.9117C5.53055 20.9117 1.0862 16.4674 1.0862 11.0002C1.0862 5.53299 5.53055 1.08864 10.9977 1.08864C16.4649 1.08864 20.9093 5.53299 20.9093 11.0002C20.9093 11.9008 20.7871 12.7879 20.5517 13.6433C20.4703 13.9329 20.6423 14.2316 20.9319 14.3131C21.2216 14.3945 21.5203 14.2226 21.6017 13.9329C21.8642 12.9825 22 11.9959 22 11.0002C21.9955 8.06292 20.8504 5.30217 18.7731 3.22482ZM15.5326 15.8021C15.2746 16.0781 14.985 16.2003 14.5822 16.2003C14.5415 16.2003 14.5007 16.2003 14.46 16.1958C13.6453 16.1415 12.876 15.8202 12.3012 15.5441C10.7126 14.7747 9.31866 13.684 8.16005 12.2991C7.2051 11.1495 6.56696 10.086 6.14153 8.94546C5.88809 8.25753 5.79305 7.73254 5.82925 7.2347C5.85641 6.94052 5.96503 6.70065 6.17774 6.49246L7.15079 5.52394C7.22773 5.45153 7.3454 5.36554 7.47213 5.36554C7.59885 5.36554 7.70747 5.447 7.77535 5.51941C7.77988 5.52394 7.78441 5.52846 7.78893 5.53299C7.96091 5.69139 8.12384 5.85885 8.29582 6.03536C8.38634 6.12587 8.47686 6.22091 8.56737 6.31143L9.34129 7.08535C9.58116 7.32521 9.58116 7.50172 9.34129 7.74159C9.25982 7.82305 9.17836 7.90452 9.09689 7.98598C8.85703 8.22585 8.63526 8.45667 8.39087 8.67391C8.38181 8.67843 8.37729 8.68748 8.36824 8.69654C8.0288 9.03597 8.14647 9.38899 8.18268 9.50666C8.1872 9.52024 8.19173 9.52929 8.19626 9.54286C8.40444 10.0452 8.6941 10.5159 9.13763 11.0771L9.14215 11.0816C9.93869 12.0637 10.776 12.8241 11.7038 13.4124C11.826 13.4894 11.9482 13.5527 12.0658 13.6116C12.1654 13.6614 12.2559 13.7066 12.3329 13.7564C12.3464 13.7655 12.3645 13.7745 12.3826 13.7836C12.5003 13.8424 12.618 13.8695 12.7357 13.8695C12.9348 13.8695 13.1203 13.7881 13.2787 13.6252L14.2518 12.6521C14.3287 12.5752 14.4419 12.4846 14.5686 12.4846C14.6863 12.4846 14.7949 12.5706 14.8628 12.6431C14.8673 12.6476 14.8673 12.6476 14.8718 12.6521L16.4378 14.218C16.6595 14.4398 16.6595 14.6435 16.4287 14.8833L16.4242 14.8879C16.3201 15.001 16.207 15.1096 16.0848 15.2273C15.9037 15.4038 15.7136 15.5894 15.5326 15.8021Z" fill="#550810"/>
</svg>
