<svg width="22" height="22" viewBox="0 0 22 22" fill="none" xmlns="http://www.w3.org/2000/svg">
<path d="M10.9997 6.55355C13.4516 6.55355 15.4463 8.54833 15.4463 11.0001C15.4463 11.3539 15.7332 11.6409 16.087 11.6409C16.4409 11.6409 16.7278 11.3539 16.7278 11.0001C16.7278 7.84164 14.1582 5.27197 10.9997 5.27197C7.84126 5.27197 5.27148 7.84164 5.27148 11.0001C5.27148 14.1585 7.84116 16.7282 10.9996 16.7282C13.0277 16.7282 14.9239 15.6394 15.9482 13.8866C16.1268 13.5811 16.0238 13.1887 15.7183 13.01C15.4128 12.8317 15.0203 12.9345 14.8417 13.24C14.0462 14.6011 12.574 15.4466 10.9995 15.4466C8.54763 15.4466 6.55296 13.4519 6.55296 11.0001C6.55296 8.54833 8.54784 6.55355 10.9997 6.55355Z" fill="#550810"/>
<path d="M21.9682 10.1515C21.5666 4.80528 17.2342 0.456141 11.8908 0.0348217C8.66077 -0.219892 5.50115 0.941645 3.22133 3.22157C0.941401 5.5015 -0.220136 8.66134 0.0345776 11.891C0.454401 17.2146 4.78528 21.5455 10.1087 21.9652C10.4021 21.9884 10.6944 21.9997 10.986 21.9997C13.9047 21.9997 16.7053 20.8513 18.7782 18.7785C19.0284 18.5282 19.0284 18.1225 18.7782 17.8724C18.528 17.6222 18.1222 17.622 17.872 17.8723C15.8576 19.8866 13.0648 20.9128 10.2096 20.6876C5.50799 20.3169 1.68301 16.4919 1.3122 11.7902C1.08707 8.93496 2.11319 6.14197 4.12751 4.12776C6.14183 2.11344 8.93428 1.08689 11.79 1.31245C16.5093 1.68443 20.3355 5.52574 20.6902 10.2474C20.7388 10.8943 20.7245 11.5441 20.6478 12.179C20.5664 12.8522 20.1589 13.4397 19.5576 13.7503C19.0135 14.0315 18.4022 14.0304 17.8802 13.7475C17.5691 13.5785 17.1801 13.6942 17.0115 14.0054C16.8428 14.3165 16.9582 14.7055 17.2695 14.8741C18.1703 15.3625 19.2186 15.3678 20.1459 14.889C21.1246 14.3834 21.7879 13.4277 21.9201 12.3327C22.0068 11.6152 22.0229 10.8814 21.9682 10.1515Z" fill="#550810"/>
</svg>
