<svg width="10" height="12" viewBox="0 0 10 12" fill="none" xmlns="http://www.w3.org/2000/svg">
<path d="M1.89575 12V9.824H0.50375V8.784H1.89575V7.36H0.50375V6.144H1.89575V0.575999H4.90375C6.30108 0.575999 7.33575 0.858666 8.00775 1.424C8.69042 1.98933 9.03175 2.81067 9.03175 3.888C9.03175 4.976 8.66375 5.82933 7.92775 6.448C7.19175 7.056 6.10908 7.36 4.67975 7.36H3.33575V8.784H5.97575V9.824H3.33575V12H1.89575ZM3.33575 6.144H4.47175C5.44242 6.144 6.19442 5.984 6.72775 5.664C7.27175 5.344 7.54375 4.768 7.54375 3.936C7.54375 3.21067 7.31975 2.672 6.87175 2.32C6.42375 1.968 5.72508 1.792 4.77575 1.792H3.33575V6.144Z" fill="#101519"/>
</svg>
