<svg width="33" height="33" viewBox="0 0 33 33" fill="none" xmlns="http://www.w3.org/2000/svg">
<path d="M31.6224 9.88982C30.7396 7.87295 29.4802 6.0769 27.8794 4.55187C27.6727 4.35497 27.3457 4.36283 27.1488 4.5696C26.952 4.77623 26.9599 5.10327 27.1665 5.30005C30.2618 8.24884 31.9666 12.2264 31.9666 16.5C31.9666 25.0283 25.0283 31.9666 16.4999 31.9666C7.97156 31.9666 1.03338 25.0283 1.03338 16.5C1.03338 7.97169 7.97169 1.03338 16.5 1.03338C19.6154 1.03338 22.6185 1.95544 25.1845 3.69974C25.4205 3.86016 25.7419 3.79887 25.9024 3.56297C26.0628 3.32694 26.0015 3.00558 25.7655 2.84515C23.0274 0.983877 19.8235 0 16.5 0C12.0927 0 7.9492 1.71626 4.83276 4.83276C1.71632 7.9492 0 12.0927 0 16.5C0 20.9073 1.71632 25.0508 4.83276 28.1672C7.9492 31.2837 12.0927 33 16.5 33C20.9073 33 25.0508 31.2837 28.1672 28.1672C31.2837 25.0508 33 20.9073 33 16.5C33 14.2021 32.5365 11.9781 31.6224 9.88982Z" fill="#550810"/>
<path d="M23.9979 6.99657L14.0608 11.6224C13.802 11.7428 13.69 12.0503 13.8104 12.309C13.9309 12.5677 14.2383 12.6799 14.4968 12.5594L20.6267 9.70579L17.6466 12.1183L10.8077 17.6546L7.06708 16.018L12.3088 13.5779C12.5675 13.4574 12.6796 13.1501 12.5591 12.8914C12.4387 12.6327 12.1312 12.5205 11.8727 12.641L6.23048 15.2676C5.93051 15.4072 5.74115 15.7126 5.74876 16.0433C5.75617 16.3668 5.95172 16.658 6.24814 16.7877L10.4248 18.615L11.6481 25.9544C11.7234 26.4082 12.3379 26.5375 12.5899 26.1526L16.0598 20.8564L22.6219 23.9187C23.1476 24.1643 23.7733 23.7891 23.8072 23.2119L24.7317 7.49512C24.7326 7.48055 24.7326 7.4656 24.7323 7.45097C24.7219 7.08519 24.329 6.84343 23.9979 6.99657ZM12.2471 23.2632L11.4476 18.4661L19.5925 11.8726L13.3587 18.8619C13.3027 18.9248 13.261 19.004 13.2417 19.0862L12.2471 23.2632ZM13.3448 23.1149L14.1002 19.942L15.1137 20.415L13.3448 23.1149ZM15.6859 19.5417L14.5923 19.0314L19.9721 12.9995L19.194 14.1872L15.6859 19.5417ZM22.7929 22.8583L16.6321 19.9832L23.5864 9.36883L22.7929 22.8583Z" fill="#550810"/>
</svg>
