<svg width="33" height="33" viewBox="0 0 33 33" fill="none" xmlns="http://www.w3.org/2000/svg">
<path d="M16.5 0.515625C7.38508 0.515625 0 7.66992 0 16.5C0 25.3301 7.38508 32.4844 16.5 32.4844C25.6149 32.4844 33 25.3301 33 16.5C33 7.66992 25.6149 0.515625 16.5 0.515625ZM24.6036 11.4662L21.8958 23.8283C21.6962 24.7049 21.1573 24.9176 20.4054 24.5051L16.2804 21.5596L14.2911 23.4158C14.0716 23.6285 13.8853 23.809 13.4595 23.809L13.7522 19.742L21.3968 13.0518C21.7294 12.7682 21.3236 12.607 20.8845 12.8906L11.4369 18.6527L7.36512 17.4217C6.48024 17.151 6.46028 16.5645 7.55141 16.152L23.4593 10.2094C24.1978 9.95156 24.8431 10.3834 24.6036 11.4662V11.4662Z" fill="black"/>
</svg>
