<svg width="33" height="33" viewBox="0 0 33 33" fill="none" xmlns="http://www.w3.org/2000/svg">
<g clip-path="url(#clip0)">
<path d="M32.0583 23.3192L24.8396 20.2254C24.5312 20.094 24.1885 20.0663 23.863 20.1465C23.5375 20.2267 23.2469 20.4105 23.0349 20.6701L19.838 24.576C14.8208 22.2104 10.7831 18.1727 8.41758 13.1556L12.3234 9.95868C12.5836 9.74706 12.7678 9.45644 12.848 9.13081C12.9283 8.80518 12.9002 8.46227 12.7682 8.15399L9.67441 0.935241C9.52947 0.602926 9.27311 0.331602 8.94954 0.168054C8.62598 0.00450664 8.25549 -0.0410138 7.90195 0.0393423L1.19883 1.58622C0.85798 1.66493 0.553875 1.85684 0.336146 2.13064C0.118417 2.40444 -7.85174e-05 2.74396 3.90341e-08 3.09378C3.90341e-08 19.626 13.3998 33 29.9062 33C30.2562 33.0002 30.5958 32.8818 30.8698 32.6641C31.1437 32.4463 31.3357 32.1421 31.4145 31.8012L32.9613 25.0981C33.0412 24.7428 32.9947 24.3708 32.8299 24.0462C32.6651 23.7215 32.3922 23.4644 32.0583 23.3192V23.3192Z" fill="black"/>
</g>
<defs>
<clipPath id="clip0">
<rect width="33" height="33" fill="white"/>
</clipPath>
</defs>
</svg>
