<svg width="33" height="33" viewBox="0 0 33 33" fill="none" xmlns="http://www.w3.org/2000/svg">
<g clip-path="url(#clip0)">
<path d="M28.0493 3.46262C27.8496 3.25881 27.5223 3.2554 27.3186 3.4554C27.1148 3.65514 27.1114 3.9823 27.3114 4.1861C29.2481 6.16185 30.3147 8.77394 30.3147 11.5411V16.5021C30.3147 22.2959 25.6011 27.0097 19.8071 27.0097H13.7437C13.6067 27.0097 13.4753 27.0641 13.3783 27.161L9.29957 31.2398V26.6082C9.29957 26.4028 9.17788 26.2169 8.98974 26.1347C5.15968 24.4611 2.68494 20.6801 2.68494 16.5021V11.5411C2.68494 5.74722 7.39859 1.03351 13.1925 1.03351H19.8072C21.8721 1.03351 23.8706 1.63202 25.5864 2.76407C25.8246 2.92134 26.1451 2.85553 26.3023 2.61738C26.4594 2.37909 26.3938 2.05863 26.1556 1.90143C24.2702 0.657551 22.075 0 19.8071 0H13.1925C6.82876 0 1.65137 5.17739 1.65137 11.5411V16.5021C1.65137 20.9771 4.23645 25.0376 8.266 26.9409V32.4874C8.266 32.937 8.829 33.1718 9.14823 32.8529L13.9578 28.0432H19.8072C26.1709 28.0432 31.3483 22.8658 31.3483 16.5021V11.5412C31.3482 8.50175 30.1766 5.63269 28.0493 3.46262Z" fill="#550810"/>
<path d="M24.788 20.5173L24.2923 17.8326C24.254 17.6247 24.0928 17.4611 23.8855 17.4197L19.9878 16.6402C19.8184 16.6064 19.6433 16.6593 19.5211 16.7815L17.9207 18.3819C15.2235 17.1779 13.733 15.6844 12.4201 12.8715L14.0155 11.2761C14.1376 11.154 14.1907 10.9788 14.1569 10.8093L13.3774 6.9116C13.3359 6.70425 13.1724 6.54312 12.9644 6.50477L10.2798 6.00926C10.2109 5.99637 10.14 5.99798 10.0716 6.01351C9.36904 6.1731 8.72799 6.52714 8.21778 7.03741C7.33452 7.92074 6.9971 9.21135 7.24228 10.7695C7.35392 11.4789 7.51982 12.2138 7.73541 12.954C7.81534 13.2281 8.1026 13.3851 8.37614 13.3056C8.6502 13.2257 8.80759 12.9389 8.7278 12.6649C8.52438 11.9667 8.36815 11.2749 8.26335 10.6088C8.06896 9.37306 8.29951 8.41735 8.94874 7.76812C9.29686 7.41994 9.72824 7.17154 10.2016 7.04566L12.4327 7.45758L13.0893 10.7408L11.4357 12.3944C11.2843 12.5458 11.242 12.7749 11.3293 12.9705C12.8325 16.3369 14.596 18.0991 17.8358 19.4718C18.0299 19.554 18.254 19.5103 18.4029 19.3614L20.0564 17.7078L23.3396 18.3645L23.7516 20.5956C23.6257 21.0689 23.3772 21.5002 23.0292 21.8484C22.3797 22.4975 21.4238 22.7281 20.1883 22.5336C17.718 22.145 14.2915 20.9457 12.0832 18.7461L12.0513 18.7143C11.0355 17.6944 10.13 16.2877 9.43292 14.6461C9.32128 14.3834 9.01797 14.261 8.75526 14.3724C8.49255 14.484 8.37002 14.7874 8.48159 15.0501C9.22982 16.8119 10.2111 18.3311 11.3211 19.4458L11.353 19.4776C13.7373 21.8524 17.3973 23.1408 20.0276 23.5546C20.3577 23.6065 20.6756 23.6324 20.9804 23.6324C22.1142 23.6324 23.0635 23.2752 23.7597 22.5791C24.27 22.0688 24.6241 21.4277 24.7836 20.7253C24.7992 20.6571 24.8007 20.5862 24.788 20.5173Z" fill="#550810"/>
<path d="M17.6022 9.37073C17.3168 9.37073 17.0854 9.60205 17.0854 9.88751C17.0854 10.173 17.3168 10.4043 17.6022 10.4043C18.837 10.4043 19.8415 11.4088 19.8415 12.6436C19.8415 12.9252 20.0767 13.1604 20.3583 13.1604C20.6399 13.1604 20.8751 12.9252 20.8751 12.6436C20.8751 10.839 19.4069 9.37073 17.6022 9.37073Z" fill="#550810"/>
<path d="M17.6022 7.16589C17.3996 7.16589 17.195 7.17711 16.9943 7.19922C16.7106 7.23054 16.5061 7.4859 16.5373 7.76956C16.5687 8.05316 16.8238 8.25702 17.1077 8.22653C17.2709 8.20849 17.4372 8.19933 17.6022 8.19933C20.0527 8.19933 22.0463 10.193 22.0463 12.6435C22.0463 12.8085 22.0372 12.9749 22.0191 13.1381C21.9879 13.4218 22.1925 13.6771 22.4762 13.7085C22.7561 13.7387 23.0156 13.5319 23.0465 13.2515C23.0686 13.0508 23.0798 12.8461 23.0798 12.6435C23.08 9.62317 20.6227 7.16589 17.6022 7.16589Z" fill="#550810"/>
<path d="M17.6021 4.96094C17.4059 4.96094 17.2074 4.96848 17.0119 4.98324C16.7273 5.00483 16.514 5.25297 16.5357 5.5376C16.5573 5.82222 16.8043 6.03498 17.0901 6.01378C17.2596 6.00089 17.432 5.99444 17.6022 5.99444C21.2685 5.99444 24.2513 8.97721 24.2513 12.6435C24.2513 13.1623 24.1914 13.6786 24.0734 14.1783C24.0094 14.449 24.1788 14.7282 24.4478 14.7976C24.7243 14.8689 25.0135 14.6936 25.0791 14.416C25.2155 13.8385 25.2847 13.2423 25.2847 12.6435C25.2848 8.40738 21.8383 4.96094 17.6021 4.96094Z" fill="#550810"/>
</g>
<defs>
<clipPath id="clip0">
<rect width="33" height="33" fill="white"/>
</clipPath>
</defs>
</svg>
