<svg width="33" height="33" viewBox="0 0 33 33" fill="none" xmlns="http://www.w3.org/2000/svg">
<path d="M28.1672 4.83276C25.0508 1.71632 20.9073 0 16.5 0C12.0927 0 7.9492 1.71632 4.83276 4.83276C1.71632 7.9492 0 12.0927 0 16.5C0 19.8246 0.980461 23.0179 2.83839 25.7543L0.0417656 32.2797C-0.141475 32.7072 0.317109 33.1507 0.738826 32.9498L6.98066 29.9775C9.77483 31.956 13.0594 33 16.5 33C20.9073 33 25.0508 31.2837 28.1672 28.1672C31.2837 25.0509 33 20.9073 33 16.5C33 12.0927 31.2837 7.9492 28.1672 4.83276ZM16.5 31.9666C13.1772 31.9666 10.0102 30.9282 7.34121 28.9634C7.18936 28.8515 6.98298 28.8319 6.81276 28.913L1.53115 31.428L3.90083 25.8989C3.97147 25.7341 3.95162 25.5444 3.84824 25.3978C2.00675 22.7842 1.03338 19.7074 1.03338 16.5C1.03338 7.97169 7.97169 1.03338 16.5 1.03338C25.0283 1.03338 31.9666 7.97169 31.9666 16.5C31.9666 25.0283 25.0283 31.9666 16.5 31.9666Z" fill="#550810"/>
<path d="M25.5912 6.19173C25.3774 6.00282 25.0508 6.02332 24.8619 6.23724C24.6731 6.45116 24.6935 6.77768 24.9074 6.96653C27.6423 9.38036 29.211 12.8552 29.211 16.5C29.211 23.5088 23.5089 29.2109 16.5001 29.2109C9.49127 29.2109 3.78924 23.5088 3.78924 16.5C3.78924 9.49116 9.49127 3.78911 16.5001 3.78911C18.7349 3.78911 20.9324 4.37706 22.8552 5.48932C23.1022 5.63228 23.4183 5.54778 23.5612 5.30073C23.7041 5.05369 23.6197 4.73767 23.3727 4.59471C21.2928 3.3917 18.9163 2.75574 16.5001 2.75574C8.92144 2.75574 2.75586 8.92133 2.75586 16.5C2.75586 24.0786 8.92144 30.2442 16.5001 30.2442C24.0788 30.2442 30.2443 24.0786 30.2443 16.5C30.2443 12.5588 28.5483 8.80164 25.5912 6.19173Z" fill="#550810"/>
<path d="M25.2754 22.102L24.7798 19.4177C24.7414 19.2099 24.5802 19.0464 24.373 19.0049L20.4759 18.2255C20.3065 18.1918 20.1313 18.2448 20.0092 18.3669L18.409 19.9671C15.7121 18.7632 14.2218 17.2698 12.9091 14.4574L14.5044 12.8621C14.6265 12.7399 14.6795 12.5648 14.6456 12.3954L13.8663 8.49816C13.8248 8.29088 13.6612 8.12975 13.4534 8.09133L10.7691 7.59575C10.7001 7.58299 10.6292 7.58447 10.5609 7.6C9.85844 7.75966 9.21746 8.1137 8.70744 8.62378C7.82424 9.50698 7.48689 10.7974 7.732 12.3554C7.95533 13.7753 8.4058 15.3196 9.00031 16.7039C9.11298 16.9661 9.41687 17.0874 9.679 16.9747C9.9412 16.862 10.0624 16.5583 9.94984 16.296C9.38826 14.9887 8.96319 13.5321 8.75281 12.1948C8.55849 10.9592 8.78904 10.0036 9.43814 9.35448C9.78613 9.00644 10.2174 8.7581 10.6909 8.63216L12.9217 9.04401L13.5783 12.3269L11.9249 13.9802C11.7735 14.1316 11.7311 14.3607 11.8185 14.5562C13.3216 17.9222 15.0848 19.6841 18.3242 21.0568C18.5182 21.1389 18.7423 21.0953 18.8912 20.9464L20.5445 19.2931L23.8273 19.9497L24.2392 22.1805C24.1133 22.6538 23.8649 23.0851 23.517 23.4332C22.8678 24.0823 21.912 24.3129 20.6766 24.1185C18.2067 23.7299 14.7806 22.5308 12.5724 20.3314L12.5407 20.2997C11.941 19.6976 11.3826 18.9673 10.8811 18.1289C10.7347 17.884 10.4174 17.8042 10.1724 17.9507C9.92747 18.0972 9.84774 18.4145 9.99424 18.6594C10.5389 19.57 11.1493 20.3672 11.8104 21.0311L11.8424 21.0629C14.2264 23.4375 17.886 24.7256 20.5159 25.1393C21.5645 25.3043 22.6911 25.227 23.6151 24.6622C23.8448 24.5219 24.0573 24.3542 24.2475 24.1639C24.7577 23.6537 25.1117 23.0128 25.2712 22.3104C25.2867 22.2419 25.2881 22.171 25.2754 22.102Z" fill="#550810"/>
</svg>
