<svg width="33" height="33" viewBox="0 0 33 33" fill="none" xmlns="http://www.w3.org/2000/svg">
<path d="M28.0574 6.2584C24.971 3.55137 20.8607 2.0625 16.4926 2.0625C7.47656 2.0625 0.139955 8.48203 0.139955 16.3711C0.139955 18.8912 0.891295 21.3533 2.32031 23.5254L0 30.9375L8.66987 28.9459C11.0565 30.0867 13.7451 30.6861 16.4853 30.6861H16.4926C25.5013 30.6861 33 24.2666 33 16.3775C33 12.5555 31.1438 8.96543 28.0574 6.2584V6.2584ZM16.4926 28.2756C14.0471 28.2756 11.6531 27.702 9.56853 26.6191L9.075 26.3613L3.93348 27.5408L5.30357 23.1516L4.97946 22.7004C3.61674 20.8055 2.90223 18.6205 2.90223 16.3711C2.90223 9.81621 9.00134 4.47949 16.5 4.47949C20.1315 4.47949 23.542 5.71699 26.1054 7.96641C28.6688 10.2158 30.2451 13.2 30.2377 16.3775C30.2377 22.9389 23.9839 28.2756 16.4926 28.2756V28.2756ZM23.9471 19.3682C23.542 19.1877 21.531 18.324 21.1554 18.208C20.7797 18.0855 20.5071 18.0275 20.2346 18.3885C19.9621 18.7494 19.1813 19.5486 18.9382 19.7936C18.7025 20.032 18.4594 20.0643 18.0542 19.8838C15.6529 18.8332 14.0766 18.0082 12.4929 15.6299C12.073 14.9982 12.9127 15.0434 13.6935 13.677C13.8261 13.4385 13.7598 13.2322 13.6567 13.0518C13.5536 12.8713 12.7359 11.1117 12.3971 10.3963C12.0656 9.7002 11.7268 9.79688 11.4763 9.78398C11.2406 9.77109 10.9681 9.77109 10.6955 9.77109C10.423 9.77109 9.98103 9.86133 9.60536 10.2158C9.22969 10.5768 8.17634 11.4404 8.17634 13.2C8.17634 14.9596 9.64219 16.6611 9.84107 16.8996C10.0473 17.1381 12.7212 20.7475 16.8241 22.3008C19.417 23.2805 20.4335 23.3643 21.7299 23.1967C22.5181 23.0936 24.146 22.333 24.4848 21.4951C24.8237 20.6572 24.8237 19.9418 24.7205 19.7936C24.6248 19.6324 24.3522 19.5422 23.9471 19.3682Z" fill="black"/>
</svg>
