<svg width="99" height="21" fill="none" xmlns="http://www.w3.org/2000/svg"><path d="M2.84 2.96v5.376h4.104v2.16H2.84v7.344h4.752V20H.68V.8h6.912v2.16H2.84z" fill="#550810"/><path d="M24.126.8v2.4H19.35v5.136h4.104v2.16H19.35V20h-2.16V.8h6.936zM35.77 20h-2.16V.8h2.16V20zM59.51.8l.72 19.2h-2.16l-.696-17.04h-.24l-2.712 16.8h-2.16l-2.688-16.8h-.24L48.615 20h-2.16L47.2.8h4.296l1.848 13.92L55.24.8h4.272zm17.12 3.312c0-.384-.12-.696-.36-.936-.24-.24-.552-.36-.936-.36h-1.44c-.384 0-.696.12-.936.36-.24.24-.36.552-.36.936v12.672c0 .384.12.696.36.936.24.24.552.36.936.36h1.44c.384 0 .696-.12.936-.36.24-.24.36-.552.36-.936V4.112zm2.16 12.672a3.413 3.413 0 01-1.008 2.448 3.622 3.622 0 01-1.104.744 3.413 3.413 0 01-1.344.264h-1.44c-.48 0-.928-.088-1.344-.264a4.059 4.059 0 01-1.104-.744 4.059 4.059 0 01-.744-1.104 3.413 3.413 0 01-.264-1.344V4.112c0-.48.088-.928.264-1.344.192-.432.44-.8.744-1.104A3.413 3.413 0 0173.895.656h1.44c.48 0 .928.088 1.344.264.432.176.8.424 1.104.744.32.304.568.672.744 1.104.176.416.264.864.264 1.344v12.672zM96.12.8h2.16l-3.096 18.624c-.032.192-.152.376-.36.552a.963.963 0 01-.672.264h-2.136c-.256 0-.488-.08-.696-.24-.192-.176-.304-.368-.336-.576L87.792.8H90l2.808 16.968c0 .048.016.096.048.144a.301.301 0 01.072.12.163.163 0 00.12.048h.072c.096 0 .152-.04.168-.12a3.68 3.68 0 00.072-.192L96.12.8z" fill="#101519"/></svg>