<svg width="147" height="31" fill="none" xmlns="http://www.w3.org/2000/svg"><path d="M3.76 4.44v8.064h6.156v3.24H3.76V26.76h7.128V30H.52V1.2h10.368v3.24H3.76z" fill="#E7B96E"/><path d="M35.69 1.2v3.6h-7.164v7.704h6.155v3.24h-6.155V30h-3.24V1.2H35.69zM53.154 30h-3.24V1.2h3.24V30zM88.767 1.2l1.08 28.8h-3.24L85.563 4.44h-.36l-4.068 25.2h-3.24l-4.032-25.2h-.36L72.423 30h-3.24l1.116-28.8h6.444l2.772 20.88L82.359 1.2h6.408zm25.68 4.968c0-.576-.18-1.044-.54-1.404-.36-.36-.828-.54-1.404-.54h-2.16c-.576 0-1.044.18-1.404.54-.36.36-.54.828-.54 1.404v19.008c0 .576.18 1.044.54 1.404.36.36.828.54 1.404.54h2.16c.576 0 1.044-.18 1.404-.54.36-.36.54-.828.54-1.404V6.168zm3.24 19.008a5.12 5.12 0 01-1.512 3.672 5.433 5.433 0 01-1.656 1.116 5.12 5.12 0 01-2.016.396h-2.16a5.12 5.12 0 01-2.016-.396 6.088 6.088 0 01-1.656-1.116 6.088 6.088 0 01-1.116-1.656 5.12 5.12 0 01-.396-2.016V6.168c0-.72.132-1.392.396-2.016.288-.648.66-1.2 1.116-1.656a5.12 5.12 0 013.672-1.512h2.16c.72 0 1.392.132 2.016.396.648.264 1.2.636 1.656 1.116.48.456.852 1.008 1.116 1.656a5.12 5.12 0 01.396 2.016v19.008zM143.679 1.2h3.24l-4.644 27.936c-.048.288-.228.564-.54.828a1.445 1.445 0 01-1.008.396h-3.204a1.67 1.67 0 01-1.044-.36c-.288-.264-.456-.552-.504-.864L131.187 1.2h3.312l4.212 25.452c0 .072.024.144.072.216a.452.452 0 01.108.18.244.244 0 00.18.072h.108c.144 0 .228-.06.252-.18a5.52 5.52 0 00.108-.288l4.14-25.452z" fill="#fff"/></svg>