<svg width="33" height="33" fill="none" xmlns="http://www.w3.org/2000/svg"><path d="M16.504 0h-.008C7.398 0 0 7.4 0 16.5c0 3.61 1 8 5 12 2.284 2.284 6.5 4.5 11.504 4.5C25.602 33 33 25.598 33 16.5 33 7.402 25.602 0 16.504 0z" fill="#61A8DE"/><path d="M25.58 7.08L3.513 15.678c-.715.278-.672 1.304.064 1.521l5.607 1.656 2.093 6.64a.963.963 0 001.607.385l2.899-2.96 5.688 4.175a1.187 1.187 0 001.865-.713L27.104 8.37a1.135 1.135 0 00-1.524-1.29zm-2.767 3.997l-10.25 9.064a.55.55 0 00-.182.351L11.986 24c-.013.115-.173.13-.207.02l-1.624-5.232a.55.55 0 01.236-.631l12.104-7.508c.279-.172.564.21.318.428z" fill="#fff"/></svg>