<svg width="33" height="33" fill="none" xmlns="http://www.w3.org/2000/svg"><mask id="a" maskUnits="userSpaceOnUse" x="0" y="0" width="33" height="33"><rect width="33" height="33" rx="16.5" fill="#C4C4C4"/></mask><g mask="url(#a)"><path d="M33 0H0v33h33V0z" fill="#61A8DE"/><path d="M25.985 7.284l-22.067 8.6c-.715.279-.672 1.304.064 1.521l5.608 1.656 2.092 6.64a.963.963 0 001.607.385l2.9-2.96 5.688 4.175a1.187 1.187 0 001.864-.713L27.51 8.575a1.135 1.135 0 00-1.524-1.29zm-2.766 3.998l-10.25 9.064a.55.55 0 00-.183.351l-.395 3.508c-.012.115-.173.13-.207.02l-1.623-5.232a.55.55 0 01.235-.631l12.105-7.507c.278-.173.563.21.318.427z" fill="#fff"/></g></svg>