<svg width="33" height="33" fill="none" xmlns="http://www.w3.org/2000/svg"><path d="M16.504 0h-.008C7.398 0 0 7.4 0 16.5c0 3.61 1 8 5 12 2.284 2.284 6.5 4.5 11.504 4.5C25.602 33 33 25.598 33 16.5 33 7.402 25.602 0 16.504 0z" fill="#79509A"/><path d="M27.362 10.43l-.006-.026c-.528-2.131-2.904-4.418-5.087-4.894l-.024-.005a28.263 28.263 0 00-10.639 0l-.025.005c-2.182.476-4.559 2.763-5.086 4.894l-.006.026a20.823 20.823 0 000 8.97l.006.026c.505 2.04 2.704 4.222 4.805 4.822v2.379c0 .86 1.05 1.284 1.646.662l2.41-2.505c.523.03 1.046.046 1.57.046 1.776 0 3.554-.168 5.319-.505l.024-.005c2.183-.476 4.56-2.763 5.087-4.894l.006-.026a20.823 20.823 0 000-8.97zm-1.907 8.538c-.352 1.39-2.157 3.12-3.59 3.439a26.35 26.35 0 01-5.66.457.134.134 0 00-.1.04c-.267.276-1.759 1.807-1.759 1.807l-1.872 1.92a.22.22 0 01-.377-.15V22.54a.136.136 0 00-.11-.133h-.002c-1.433-.32-3.237-2.048-3.59-3.439a18.897 18.897 0 010-8.107c.353-1.39 2.157-3.119 3.59-3.438a26.324 26.324 0 019.88 0c1.434.32 3.238 2.048 3.59 3.438.587 2.69.587 5.417 0 8.107z" fill="#fff"/><path d="M20.044 20.788c-.22-.067-.43-.112-.625-.193-2.022-.839-3.882-1.921-5.356-3.58-.838-.943-1.494-2.008-2.048-3.134-.263-.535-.485-1.09-.71-1.642-.206-.503.097-1.023.416-1.402.3-.355.686-.628 1.103-.828.326-.157.648-.067.886.21.515.597.988 1.225 1.37 1.917.236.426.171.947-.255 1.237-.104.07-.199.153-.295.232a.967.967 0 00-.223.235.642.642 0 00-.043.565c.527 1.445 1.413 2.57 2.869 3.175.233.097.466.21.735.179.449-.053.595-.546.91-.803.307-.252.7-.255 1.032-.045.331.21.653.435.972.662.314.224.626.443.916.697.278.245.373.567.217.9-.287.608-.704 1.114-1.306 1.438-.17.09-.373.12-.565.18-.22-.067.192-.06 0 0zM16.931 9.313c2.644.074 4.816 1.828 5.281 4.442.08.446.108.901.143 1.353.015.19-.093.371-.298.373-.212.003-.307-.174-.32-.364-.028-.377-.047-.755-.099-1.128-.274-1.97-1.844-3.599-3.805-3.949-.295-.052-.597-.066-.895-.097-.19-.02-.437-.032-.479-.266-.035-.197.131-.354.319-.364.05-.003.102 0 .153 0 2.644.074-.05 0 0 0z" fill="#fff"/><path d="M20.95 14.521c-.005.033-.008.111-.027.184-.07.266-.472.299-.565.031a.8.8 0 01-.032-.256c0-.56-.123-1.12-.405-1.606a2.99 2.99 0 00-1.254-1.177 3.601 3.601 0 00-1-.307c-.15-.025-.302-.04-.454-.06-.183-.026-.281-.143-.273-.324a.284.284 0 01.317-.28c.607.034 1.193.165 1.732.45 1.097.581 1.724 1.498 1.907 2.723.008.055.022.11.026.166.01.137.017.275.027.456-.004.033-.01-.18 0 0z" fill="#fff"/><path d="M19.305 14.457c-.221.004-.34-.118-.363-.32-.015-.142-.028-.286-.062-.423a1.189 1.189 0 00-.438-.688 1.145 1.145 0 00-.358-.173c-.162-.047-.33-.034-.492-.073-.176-.043-.273-.186-.245-.35a.318.318 0 01.335-.256c1.025.074 1.757.604 1.862 1.81.007.086.016.176-.003.257-.032.14-.136.21-.236.216-.221.004.1-.006 0 0z" fill="#fff"/></svg>