<svg width="33" height="33" fill="none" xmlns="http://www.w3.org/2000/svg"><mask id="a" maskUnits="userSpaceOnUse" x="0" y="0" width="33" height="33"><rect width="33" height="33" rx="16.5" fill="#C4C4C4"/></mask><g mask="url(#a)"><path d="M33 0H0v33h33V0z" fill="#7D3DAF"/><path d="M26.937 10.637l-.007-.026c-.527-2.13-2.904-4.418-5.086-4.893l-.025-.005a28.263 28.263 0 00-10.638 0l-.026.005C8.974 6.193 6.597 8.48 6.07 10.61l-.006.026a20.823 20.823 0 000 8.97l.006.027c.506 2.04 2.705 4.221 4.806 4.821v2.38c0 .86 1.05 1.283 1.646.662l2.41-2.506c.523.03 1.046.046 1.57.046a28.32 28.32 0 005.318-.505l.025-.005c2.182-.476 4.559-2.762 5.086-4.893l.007-.026a20.823 20.823 0 000-8.97zm-1.908 8.539c-.352 1.39-2.156 3.119-3.59 3.438-1.877.357-3.768.51-5.658.457a.134.134 0 00-.1.04l-1.76 1.807-1.872 1.921a.22.22 0 01-.377-.151v-3.94a.136.136 0 00-.11-.134h-.002c-1.434-.32-3.237-2.048-3.59-3.438a18.896 18.896 0 010-8.107c.353-1.39 2.157-3.119 3.59-3.438a26.324 26.324 0 019.88 0c1.434.319 3.237 2.047 3.59 3.438.587 2.69.587 5.417 0 8.107z" fill="#fff"/><path d="M19.619 20.995c-.22-.067-.43-.112-.625-.193-2.022-.838-3.882-1.92-5.356-3.579-.838-.943-1.494-2.008-2.048-3.135-.263-.534-.485-1.09-.71-1.641-.207-.503.097-1.023.416-1.402.3-.356.686-.628 1.103-.829.326-.156.648-.066.886.21.514.598.987 1.225 1.37 1.918.236.426.17.947-.256 1.236-.103.07-.198.153-.294.233a.963.963 0 00-.223.235.642.642 0 00-.043.564c.526 1.446 1.413 2.57 2.868 3.176.233.097.467.21.735.178.45-.052.595-.545.91-.803.308-.251.701-.255 1.033-.045.331.21.653.435.972.663.314.224.626.442.915.697.278.245.374.566.218.899-.287.608-.704 1.115-1.306 1.438-.17.091-.373.121-.565.18.192-.059-.22-.067 0 0zM16.506 9.52c2.644.074 4.816 1.829 5.281 4.443.08.445.108.9.143 1.353.015.19-.093.37-.298.373-.212.003-.307-.175-.321-.365-.027-.376-.046-.754-.098-1.127-.274-1.97-1.845-3.6-3.805-3.949-.295-.053-.597-.066-.896-.098-.189-.02-.436-.031-.478-.266-.035-.197.131-.354.319-.364.05-.003.102 0 .153 0-.051 0 2.644.074 0 0z" fill="#fff"/><path d="M20.524 14.729c-.004.033-.007.11-.026.184-.07.265-.473.298-.565.03a.8.8 0 01-.032-.255c-.001-.56-.123-1.12-.405-1.607a2.99 2.99 0 00-1.254-1.176 3.605 3.605 0 00-1-.307c-.15-.025-.303-.04-.454-.061-.183-.026-.282-.143-.273-.324.008-.169.132-.29.317-.28.607.034 1.193.165 1.732.45 1.097.582 1.724 1.499 1.907 2.723.008.056.021.11.026.166.01.138.016.276.027.457-.01-.181-.004.033 0 0z" fill="#fff"/><path d="M18.88 14.665c-.222.004-.34-.119-.363-.321-.016-.142-.028-.285-.062-.423a1.188 1.188 0 00-.438-.688 1.14 1.14 0 00-.358-.172c-.162-.047-.33-.034-.492-.074-.176-.043-.274-.185-.246-.35a.318.318 0 01.335-.256c1.026.074 1.758.604 1.863 1.811.007.085.016.175-.003.257-.032.14-.136.21-.236.216.1-.007-.222.004 0 0z" fill="#fff"/></g></svg>