<svg width="33" height="33" fill="none" xmlns="http://www.w3.org/2000/svg"><path fill="#fff" d="M5 6h23v20H5z"/><path d="M16.504 0h-.008C7.398 0 0 7.4 0 16.5c0 3.61 1.163 6.955 3.141 9.671l-2.056 6.13 6.342-2.028A16.357 16.357 0 0016.504 33C25.602 33 33 25.598 33 16.5 33 7.402 25.602 0 16.504 0zm9.601 23.3c-.398 1.124-1.978 2.056-3.238 2.329-.862.183-1.988.33-5.78-1.242-4.848-2.009-7.97-6.936-8.214-7.256-.233-.32-1.96-2.609-1.96-4.977 0-2.367 1.203-3.52 1.688-4.015.398-.407 1.056-.592 1.687-.592.204 0 .387.01.553.018.484.02.728.05 1.047.815.398.959 1.368 3.327 1.483 3.57.118.244.235.574.07.893-.154.33-.29.477-.534.757-.243.28-.474.495-.718.796-.222.262-.474.543-.194 1.027.281.475 1.25 2.057 2.678 3.327 1.841 1.64 3.335 2.164 3.869 2.387.398.165.872.125 1.163-.184.37-.398.825-1.058 1.29-1.708.33-.466.746-.524 1.183-.359.446.155 2.803 1.32 3.288 1.562.484.243.804.358.922.563.115.204.115 1.163-.283 2.29z" fill="#1BD741"/></svg>